# xmcd
#
# Track frame offsets: 
#        150
#        12791
#        23383
#        32409
#        52183
#        62293
#        74806
#        88820
#        110175
#        121904
#        138309
#
# Disc length: 2139 seconds
#
# Revision: 0
# Processed by: cddbd v1.5.1PL2 Copyright (c) Steve Scherf et al.
# Submitted via: ExactAudioCopy v0.95a5
#
DISCID=9108590b
DTITLE=The Circle B Cowboys - The First Ride
DYEAR=2005
DGENRE=Country
TTITLE0=A Cowboy Has to Sing
TTITLE1=Tumbling Tumbleweeds
TTITLE2=Back in the Saddle Again
TTITLE3=Blue Spanish
TTITLE4=Texas Plains
TTITLE5=Cool Water
TTITLE6=The Master's Call
TTITLE7=Ghost Riders in the Sky
TTITLE8=Zach's Solo
TTITLE9=The Old Harmonica
TTITLE10=Prairie Girl
EXTD=
EXTT0=
EXTT1=
EXTT2=
EXTT3=
EXTT4=
EXTT5=
EXTT6=
EXTT7=
EXTT8=
EXTT9=
EXTT10=
PLAYORDER=
